<?xml version="1.0" standalone="no"?>
<!DOCTYPE svg PUBLIC "-//W3C//DTD SVG 20010904//EN"
 "http://www.w3.org/TR/2001/REC-SVG-20010904/DTD/svg10.dtd">
<svg version="1.0" xmlns="http://www.w3.org/2000/svg"
 width="1280.000000pt" height="731.000000pt" viewBox="0 0 1280.000000 731.000000"
 preserveAspectRatio="xMidYMid meet">

<g transform="translate(0.000000,731.000000) scale(0.100000,-0.100000)"
fill="#000000" stroke="none">
<path d="M9950 6978 c-31 -12 -60 -42 -60 -63 0 -12 -5 -26 -11 -32 -16 -16
11 -55 34 -49 9 2 15 0 11 -5 -10 -16 91 4 123 25 28 18 33 27 33 62 0 29 -5
44 -16 48 -8 3 -12 11 -9 16 7 12 -72 10 -105 -2z"/>
<path d="M9543 4618 c-6 -7 -13 -33 -17 -58 -17 -113 -72 -171 -184 -192 l-71
-13 94 -189 c51 -104 100 -193 109 -198 9 -5 16 -15 16 -23 0 -7 29 -52 65
-100 36 -47 65 -89 65 -94 0 -4 8 -15 18 -24 17 -15 39 -16 238 -7 310 15 584
46 584 66 0 3 -13 49 -29 102 -16 54 -35 124 -41 157 -6 33 -18 83 -25 110 -7
28 -20 82 -29 120 -9 39 -21 87 -27 108 l-10 38 -25 -26 -25 -27 -54 22 c-30
12 -55 26 -55 31 0 5 -10 9 -21 9 -22 0 -22 -8 -4 -52 8 -19 7 -20 -70 -36
-135 -29 -158 -36 -175 -54 -20 -22 -41 -24 -108 -15 -58 7 -95 47 -116 123
-31 114 -72 228 -82 231 -6 2 -16 -2 -21 -9z"/>
<path d="M12730 2905 c0 -5 -16 -10 -36 -11 -28 0 -42 -7 -57 -28 -38 -52 -77
-60 -457 -90 -43 -3 -97 -19 -130 -37 -27 -16 -82 -39 -91 -39 -5 0 -3 14 6
30 9 17 20 30 25 30 6 0 10 9 10 20 0 24 -19 26 -46 5 -10 -8 -28 -15 -39 -15
-11 0 -37 -16 -59 -35 -21 -19 -40 -35 -43 -35 -2 0 -17 10 -33 21 -26 20 -33
21 -76 10 -47 -12 -119 -7 -129 9 -3 4 -32 6 -64 3 -43 -4 -68 -1 -91 11 -18
9 -43 16 -55 16 -13 0 -28 6 -34 14 -18 21 -61 26 -106 11 -22 -7 -67 -16 -99
-19 -33 -4 -64 -10 -70 -15 -6 -4 -27 -6 -46 -4 -36 5 -40 5 -125 1 -46 -2
-108 7 -125 17 -4 3 -67 5 -141 6 -85 1 -137 6 -142 13 -4 7 -9 3 -13 -11 -5
-19 -9 -20 -30 -11 -16 8 -27 8 -36 0 -7 -5 -48 -19 -90 -30 -65 -17 -76 -17
-71 -5 5 12 2 13 -13 5 -10 -5 -39 -13 -63 -17 -27 -4 -39 -10 -31 -15 16 -10
-24 -24 -62 -22 -19 2 -28 -3 -28 -13 0 -8 -7 -15 -15 -15 -13 0 -65 -20 -107
-41 -10 -5 -36 -9 -57 -9 -22 0 -55 -9 -73 -19 -42 -25 -290 -74 -583 -116
-132 -19 -147 -23 -139 -37 8 -12 153 -6 364 16 74 8 189 20 255 26 66 7 147
18 180 25 33 6 107 11 165 10 93 -1 112 -4 162 -29 31 -15 65 -39 75 -53 10
-14 27 -37 39 -52 12 -14 36 -57 55 -96 19 -38 36 -72 40 -75 3 -3 18 -30 33
-60 16 -30 42 -75 59 -100 17 -25 39 -57 49 -72 10 -15 18 -33 18 -41 0 -8 9
-22 20 -32 14 -13 17 -22 10 -30 -8 -9 -3 -34 16 -86 15 -41 29 -98 31 -128 3
-34 8 -49 13 -40 6 9 10 4 15 -17 3 -16 10 -43 15 -60 14 -43 12 -82 -6 -145
-29 -100 -106 -185 -211 -234 -24 -11 -43 -23 -43 -27 0 -5 -11 -8 -24 -8 -14
0 -27 -4 -30 -9 -8 -12 -129 -26 -231 -25 -77 1 -84 0 -45 -7 149 -29 266 -21
425 28 139 44 311 172 370 278 16 27 53 75 84 106 60 62 108 82 189 81 34 0
42 3 38 14 -35 91 -53 250 -37 325 11 51 11 55 -11 72 -90 70 -253 240 -382
397 -179 219 -246 305 -246 318 0 17 62 21 210 11 183 -12 273 -25 311 -44 27
-14 32 -14 81 11 62 31 96 33 141 5 30 -18 36 -19 92 -5 109 25 301 12 376
-27 39 -19 89 -64 89 -78 0 -4 13 -14 29 -24 36 -21 95 -22 198 -2 43 8 130
22 193 30 63 8 132 18 153 21 49 9 49 -8 -3 -58 -22 -22 -40 -45 -40 -53 0 -7
-7 -18 -15 -25 -8 -7 -15 -20 -15 -29 0 -10 -9 -36 -20 -59 -12 -24 -18 -48
-14 -53 4 -6 0 -15 -7 -20 -11 -7 -11 -9 3 -9 9 0 23 -6 30 -13 7 -7 20 -16
28 -20 8 -4 31 -17 52 -29 20 -13 58 -36 85 -52 76 -45 145 -99 217 -170 37
-36 71 -66 76 -66 4 0 11 -8 13 -17 3 -10 5 207 6 482 0 284 -3 494 -8 486 -7
-11 -9 -11 -14 0 -3 9 -6 7 -6 -5 -1 -20 -1 -20 -16 0 -8 10 -15 15 -15 9z
m-2530 -201 c0 -2 -12 -4 -26 -4 -14 0 -23 4 -20 9 6 8 46 4 46 -5z m2277 -90
c-3 -3 -12 -4 -19 -1 -8 3 -5 6 6 6 11 1 17 -2 13 -5z"/>
<path d="M8105 2469 c-4 -6 -9 -30 -10 -53 -1 -22 -5 -49 -9 -58 -22 -49 32
-62 114 -29 77 32 76 55 -4 101 -21 11 -48 27 -61 36 -17 11 -25 12 -30 3z"/>
<path d="M8474 2192 c3 -6 8 -23 10 -39 10 -67 28 -145 42 -178 7 -19 14 -66
14 -104 0 -63 -4 -78 -45 -158 -33 -64 -69 -113 -130 -178 -46 -49 -84 -93
-85 -97 -1 -28 100 8 168 59 50 37 231 128 282 141 25 7 70 13 100 14 47 3 55
6 52 22 -2 10 -12 28 -23 39 -20 21 -49 105 -49 139 0 26 -256 300 -311 332
-17 10 -29 14 -25 8z"/>
<path d="M11509 2093 c5 -10 5 -26 0 -40 -6 -18 -5 -23 6 -23 8 0 15 8 15 18
0 9 3 27 6 40 5 18 2 22 -15 22 -18 0 -20 -3 -12 -17z"/>
<path d="M12430 1961 c0 -5 -8 -11 -17 -14 -14 -3 -12 -6 10 -17 24 -12 30
-12 38 1 5 8 7 19 6 24 -5 13 -37 19 -37 6z"/>
<path d="M12070 1528 l-25 -11 25 -4 c54 -8 70 -14 100 -39 41 -35 54 -19 24
29 -21 32 -29 37 -62 36 -20 0 -48 -5 -62 -11z"/>
<path d="M9998 1103 c6 -2 18 -2 25 0 6 3 1 5 -13 5 -14 0 -19 -2 -12 -5z"/>
<path d="M12746 838 c-65 -51 -79 -65 -70 -71 12 -7 75 22 97 45 17 17 23 48
9 48 -4 0 -21 -10 -36 -22z"/>
<path d="M12070 643 c0 -7 4 -15 10 -18 5 -3 14 -23 20 -45 6 -21 21 -48 35
-58 34 -27 185 -257 236 -360 53 -105 95 -152 137 -152 29 0 30 1 26 37 -6 46
-39 104 -94 163 -22 25 -58 65 -78 90 -20 25 -54 63 -74 85 -45 50 -99 121
-117 157 -16 32 -101 117 -101 101z"/>
</g>
</svg>
