<?xml version="1.0" standalone="no"?>
<!DOCTYPE svg PUBLIC "-//W3C//DTD SVG 20010904//EN"
 "http://www.w3.org/TR/2001/REC-SVG-20010904/DTD/svg10.dtd">
<svg version="1.0" xmlns="http://www.w3.org/2000/svg"
 width="260.000000pt" height="260.000000pt" viewBox="0 0 260.000000 260.000000"
 preserveAspectRatio="xMidYMid meet">
<metadata>
Created by potrace 1.14, written by Peter Selinger 2001-2017
</metadata>
<g transform="translate(0.000000,260.000000) scale(0.100000,-0.100000)"
fill="#000000" stroke="none">
<path d="M1288 2531 c5 -14 4 -14 -13 -1 -17 14 -18 14 -7 -6 10 -19 9 -21
-11 -20 -15 1 -21 -4 -19 -16 1 -9 -3 -20 -9 -24 -7 -4 -9 -3 -5 4 3 6 2 13
-3 16 -11 7 -9 -13 2 -31 6 -9 3 -11 -10 -6 -16 6 -17 5 -3 -12 9 -12 10 -16
2 -11 -9 6 -11 1 -8 -18 3 -15 1 -24 -5 -21 -5 4 -7 10 -4 15 3 5 1 11 -4 15
-10 5 -5 -40 5 -57 8 -13 -11 -9 -25 5 -10 10 -11 9 -6 -5 4 -10 11 -18 16
-18 5 0 8 -6 6 -12 -3 -18 -30 -37 -41 -31 -5 4 -6 1 -2 -6 4 -6 12 -8 18 -5
7 4 8 2 4 -4 -4 -7 -2 -12 5 -12 7 0 2 -8 -9 -19 -21 -17 -31 -38 -14 -28 4 3
7 -5 7 -18 0 -14 -4 -20 -10 -15 -6 5 -11 -1 -11 -16 -1 -13 2 -24 8 -24 5 0
7 4 4 8 -3 5 1 9 9 9 11 0 11 -4 -2 -23 -8 -13 -12 -28 -8 -34 3 -5 0 -10 -7
-10 -8 0 -7 -4 4 -11 10 -5 15 -16 12 -24 -4 -8 -2 -15 2 -16 5 0 17 -2 27 -4
9 -2 15 1 11 6 -3 5 1 9 8 9 9 0 9 3 -2 10 -12 8 -12 10 5 11 12 0 15 3 7 6
-7 3 -22 -3 -33 -13 -10 -9 -19 -14 -19 -11 0 3 10 15 22 27 12 11 18 20 13
20 -4 0 0 9 9 19 15 17 23 44 25 91 1 13 2 13 11 0 8 -13 10 -12 10 4 0 12 5
16 15 13 8 -4 17 -1 21 5 4 6 3 8 -2 5 -6 -3 -16 -2 -24 4 -12 7 -12 9 3 9 11
0 15 4 11 12 -5 7 -2 9 9 5 11 -4 14 -2 11 7 -3 9 4 12 23 11 17 -1 27 -7 25
-15 -2 -8 4 -11 18 -7 17 4 19 3 9 -9 -9 -11 -8 -14 4 -14 8 0 18 -7 21 -16 3
-8 2 -12 -4 -9 -6 3 -10 1 -10 -4 0 -6 5 -11 10 -11 6 0 10 -7 10 -15 0 -8 3
-14 8 -12 4 1 7 -2 7 -8 0 -5 -5 -9 -11 -9 -6 1 -11 -5 -11 -12 0 -9 7 -10 26
-3 25 9 25 8 7 -6 -17 -13 -17 -15 -3 -15 11 0 14 -5 10 -17 -4 -10 -2 -14 4
-10 5 3 10 0 10 -8 0 -8 -4 -12 -9 -9 -4 3 -8 0 -8 -5 0 -6 8 -11 18 -11 16
-1 16 -1 -1 -11 -15 -9 -16 -13 -6 -26 10 -11 10 -16 0 -22 -10 -6 -9 -10 3
-14 9 -4 16 -11 16 -17 0 -6 -4 -9 -8 -6 -5 3 -9 -1 -9 -9 0 -8 5 -11 10 -8 6
4 8 0 4 -10 -3 -10 -2 -17 4 -17 6 0 7 -5 4 -10 -5 -8 -12 -7 -22 2 -15 12
-15 11 -3 -9 10 -15 18 -19 26 -12 8 6 10 2 9 -16 -2 -15 3 -29 12 -34 9 -4
13 -14 9 -20 -4 -6 -12 -9 -17 -6 -5 4 -10 -1 -10 -9 -1 -9 -2 -22 -3 -28 -1
-7 2 -18 6 -25 6 -7 3 -15 -9 -22 -10 -6 -13 -11 -8 -11 6 0 17 6 24 13 11 10
13 9 8 -5 -3 -10 -2 -20 2 -22 15 -10 21 6 10 26 -10 18 -8 19 13 14 22 -7 22
-6 -2 8 -14 9 -19 15 -11 16 11 0 10 4 -5 16 -16 13 -16 15 -2 10 10 -3 17 -2
17 2 -4 28 2 52 13 46 7 -4 8 -3 4 4 -4 6 -14 9 -24 6 -12 -4 -10 1 7 15 13
12 19 21 14 21 -5 0 -14 -5 -20 -11 -7 -7 -10 -3 -10 16 0 15 2 23 6 18 7 -12
42 -13 35 -1 -3 5 -9 6 -14 3 -4 -3 -11 2 -14 11 -5 12 -1 14 17 10 12 -3 16
-3 9 0 -6 3 -9 10 -6 16 4 6 -2 8 -17 4 l-24 -7 23 14 c24 14 21 30 -4 20 -8
-3 -14 0 -14 5 0 6 9 9 19 7 11 -2 26 4 33 13 11 15 11 15 -3 5 -19 -16 -33
-5 -18 14 9 10 8 13 -2 13 -11 0 -11 2 1 10 9 6 10 10 3 10 -11 0 -11 8 -1 50
2 9 -3 14 -12 12 -10 -1 -9 2 4 13 14 11 16 15 5 15 -12 0 -12 2 0 9 11 7 11
9 0 13 -12 4 -11 8 1 23 13 17 13 18 -1 13 -13 -5 -16 -2 -12 13 3 11 10 16
17 12 6 -4 5 1 -3 10 -14 17 -26 24 -17 9 2 -4 0 -14 -5 -22 -7 -11 -8 -9 -6
8 2 13 10 28 18 34 12 8 12 9 -1 5 -8 -2 -21 2 -28 9 -7 8 -8 14 -2 14 5 0 10
7 10 15 0 8 -4 15 -10 15 -5 0 -10 7 -10 16 0 8 -4 13 -8 10 -4 -2 -8 4 -8 14
0 18 1 18 20 2 20 -16 20 -16 6 3 -8 11 -21 24 -28 28 -11 7 -10 13 5 29 18
21 18 21 -5 9 -12 -7 -22 -8 -21 -4 5 27 -2 45 -15 40 -11 -4 -13 -1 -9 10 4
11 2 14 -5 9 -15 -9 -16 6 -2 20 6 6 3 10 -9 10 -11 0 -17 -5 -15 -11 3 -5 0
-3 -8 5 -7 8 -29 15 -50 16 -29 0 -35 -2 -30 -15z m-27 -48 c13 -16 12 -17 -3
-4 -10 7 -18 15 -18 17 0 8 8 3 21 -13z m-94 -363 c1 -11 -2 -22 -6 -24 -6 -4
-7 26 -2 42 3 8 7 -1 8 -18z m319 -346 c1 -9 0 -13 -4 -10 -3 4 -7 14 -8 22
-1 9 0 13 4 10 3 -4 7 -14 8 -22z"/>
<path d="M1146 2322 c-3 -5 1 -9 9 -9 8 0 15 4 15 9 0 4 -4 8 -9 8 -6 0 -12
-4 -15 -8z"/>
<path d="M1316 2278 c3 -5 10 -6 15 -3 13 9 11 12 -6 12 -8 0 -12 -4 -9 -9z"/>
<path d="M1140 2259 c0 -5 5 -7 10 -4 6 3 10 8 10 11 0 2 -4 4 -10 4 -5 0 -10
-5 -10 -11z"/>
<path d="M381 2122 c0 -7 -8 -20 -17 -29 -8 -9 -13 -22 -9 -31 4 -12 3 -13
-10 -2 -13 11 -14 10 -9 -4 5 -13 2 -15 -12 -10 -17 6 -17 5 1 -9 15 -11 22
-12 27 -4 6 9 8 9 8 0 0 -15 -15 -25 -24 -16 -10 11 -37 12 -30 2 3 -5 10 -7
15 -4 5 4 9 -1 9 -10 0 -9 4 -14 9 -10 5 3 13 0 17 -6 4 -7 3 -9 -4 -5 -6 3
-13 2 -16 -3 -3 -5 1 -11 9 -15 8 -3 12 -12 9 -21 -3 -8 -1 -15 5 -15 6 0 11
-5 11 -11 0 -5 -4 -8 -8 -5 -5 3 -9 -1 -9 -9 0 -8 3 -14 6 -13 3 0 13 0 21 -1
13 -1 13 -2 0 -11 -12 -8 -11 -10 8 -10 18 0 22 -6 22 -30 0 -23 5 -30 19 -30
27 0 35 -17 14 -29 -15 -9 -14 -10 9 -7 25 4 26 3 17 -21 -8 -22 -7 -24 5 -14
11 9 15 8 20 -4 3 -9 10 -13 16 -10 6 4 7 -1 3 -11 -4 -11 -2 -15 4 -11 13 8
26 -20 16 -35 -3 -6 -1 -8 5 -4 5 3 12 0 15 -6 3 -9 12 -6 30 10 18 17 27 20
32 11 5 -7 4 -10 -3 -5 -6 3 -16 -2 -21 -13 -13 -23 -15 -52 -3 -36 6 9 14 11
39 6 4 0 -2 -7 -13 -15 -10 -8 -16 -18 -11 -22 4 -4 7 -2 7 4 0 7 5 12 11 12
5 0 7 -5 3 -12 -4 -7 -3 -8 5 -4 6 4 18 3 25 -3 13 -11 13 -5 7 53 -1 5 -4 6
-8 3 -10 -11 -32 13 -26 29 3 8 0 14 -7 14 -6 0 -8 5 -4 11 4 7 -1 7 -16 -1
-15 -8 -20 -8 -16 -1 4 6 0 14 -9 17 -14 6 -14 8 2 19 10 7 22 11 27 8 5 -4 6
-1 2 5 -5 9 -13 9 -27 1 -12 -6 -23 -8 -27 -5 -3 3 0 6 6 6 7 0 12 5 12 11 0
5 -4 7 -10 4 -5 -3 -10 -2 -10 4 0 5 8 12 18 14 16 4 16 5 0 6 -10 0 -18 6
-18 12 0 5 -5 7 -12 3 -6 -4 -8 -3 -4 4 3 6 2 22 -4 36 -6 17 -6 27 2 32 7 5
8 2 3 -7 -5 -8 -4 -11 1 -6 5 5 9 14 10 20 0 7 2 20 2 30 1 10 7 15 12 12 6
-3 10 -3 10 2 0 13 71 7 80 -7 6 -10 9 -9 13 1 5 12 6 12 6 0 1 -11 4 -11 18
0 14 12 16 12 11 -1 -3 -8 -1 -22 3 -32 12 -22 45 -16 42 8 -1 11 0 13 3 6 3
-6 9 -10 13 -8 4 3 8 -1 8 -9 0 -8 -4 -15 -9 -15 -5 0 -6 -5 -2 -11 4 -7 9 -7
13 -2 10 16 58 21 58 7 0 -7 -3 -11 -7 -9 -4 2 -7 -3 -7 -11 0 -11 7 -8 26 8
l25 23 -18 -28 c-17 -28 -17 -28 3 -18 25 14 42 14 18 0 -18 -11 -14 -29 6
-29 7 0 6 4 -3 11 -11 8 -8 9 14 4 17 -3 35 -13 41 -22 7 -10 17 -13 25 -8 7
4 16 2 21 -6 15 -24 10 -34 -7 -13 -15 18 -15 18 -5 -3 7 -14 17 -20 30 -16
16 4 19 1 14 -19 -5 -22 -4 -22 9 2 16 29 19 60 6 60 -5 0 -7 10 -3 23 5 19 4
20 -5 4 -6 -9 -9 -21 -5 -26 3 -5 0 -13 -6 -17 -7 -4 -9 -3 -6 3 7 10 -12 23
-41 29 -8 1 -17 5 -20 8 -8 9 30 2 46 -7 7 -5 12 -3 12 7 0 9 -3 15 -7 15 -20
-3 -34 2 -28 11 3 6 2 10 -4 10 -6 0 -8 8 -5 18 5 14 4 15 -5 2 -9 -13 -15 -8
-13 11 1 3 -5 6 -13 6 -8 0 -12 -4 -9 -9 3 -4 0 -8 -5 -8 -6 0 -11 7 -11 15 0
8 -6 15 -12 15 -10 0 -10 2 0 9 11 7 10 9 -3 15 -9 3 -13 11 -9 18 6 10 4 11
-7 1 -18 -18 -29 -16 -30 5 0 15 -1 15 -8 -2 -7 -18 -8 -18 -14 -2 -4 10 -4
23 0 29 3 7 3 9 -2 5 -4 -4 -15 1 -24 11 -10 11 -30 18 -51 18 -23 -1 -35 4
-36 14 -1 8 -3 19 -4 24 -1 6 -2 14 0 20 1 5 -8 1 -19 -9 -15 -13 -21 -15 -21
-6 0 7 -3 10 -7 7 -3 -4 -11 1 -18 10 -7 9 -20 18 -31 19 -40 6 -63 15 -78 30
-9 8 -16 11 -16 5 0 -6 -5 -11 -11 -11 -5 0 -7 5 -4 10 3 6 1 10 -4 10 -6 0
-11 -4 -11 -10 0 -5 -5 -10 -11 -10 -5 0 -8 4 -5 8 3 5 -1 9 -9 9 -8 0 -15 -4
-15 -9 0 -4 -5 -8 -11 -8 -5 0 -7 6 -4 13 4 6 0 4 -8 -6 -15 -18 -15 -18 -20
0 -3 10 -5 12 -6 5z m234 -54 c4 -3 2 -9 -3 -12 -5 -3 -15 1 -21 8 -10 11 -9
14 3 12 9 -1 18 -5 21 -8z m70 -27 c3 -5 2 -12 -3 -15 -5 -3 -9 1 -9 9 0 17 3
19 12 6z m95 -73 c10 -21 10 -21 -3 -6 -8 10 -18 14 -22 10 -5 -4 -5 -1 -1 6
10 17 14 15 26 -10z m83 -64 c-4 -12 -8 -13 -14 -3 -9 15 -2 32 11 24 5 -3 6
-13 3 -21z m-130 -7 c3 -8 -1 -14 -9 -14 -7 0 -15 6 -18 14 -3 7 1 13 8 13 8
0 16 -6 19 -13z m207 -56 c0 -4 -6 -8 -13 -8 -8 0 -14 6 -14 13 0 7 6 10 14 7
7 -3 13 -8 13 -12z m-370 -162 c0 -14 -17 -10 -23 5 -4 10 -1 13 9 9 7 -3 14
-9 14 -14z m63 -37 c26 -21 33 -44 11 -35 -8 3 -12 8 -10 11 9 8 -15 33 -25
26 -5 -3 -9 0 -9 5 0 15 9 14 33 -7z"/>
<path d="M542 2114 c10 -10 20 -16 22 -13 3 3 -5 11 -17 18 -21 13 -21 12 -5
-5z"/>
<path d="M1205 2120 c-3 -5 -1 -10 4 -10 6 0 11 5 11 10 0 6 -2 10 -4 10 -3 0
-8 -4 -11 -10z"/>
<path d="M705 2020 c-3 -6 1 -7 9 -4 18 7 21 14 7 14 -6 0 -13 -4 -16 -10z"/>
<path d="M2256 1953 c-7 -8 -11 -9 -37 -12 -5 0 -7 -5 -4 -11 3 -6 -1 -7 -9
-4 -9 3 -13 11 -10 16 4 6 -3 5 -15 -1 -12 -7 -27 -9 -34 -5 -8 5 -7 2 2 -9 7
-9 10 -18 5 -18 -34 -5 -61 -3 -73 6 -9 6 -8 -1 4 -20 l19 -30 -22 19 c-12 11
-25 16 -29 13 -3 -4 -1 -7 5 -7 7 0 12 -5 12 -10 0 -7 -6 -7 -20 0 -14 7 -20
7 -20 0 0 -5 5 -10 12 -10 6 0 9 -2 6 -5 -9 -10 -38 7 -31 18 4 6 1 7 -6 3 -7
-5 -10 -14 -8 -21 4 -8 -3 -11 -18 -9 -16 1 -22 -2 -19 -11 3 -7 1 -16 -5 -20
-6 -3 -11 -1 -11 6 0 7 -3 9 -6 6 -10 -10 17 -38 28 -31 6 4 15 0 20 -7 10
-14 6 1 -10 40 -3 8 10 -1 28 -20 18 -19 30 -26 27 -16 -4 9 -2 17 3 17 6 0
10 -5 10 -12 0 -6 7 -3 16 8 8 10 13 14 10 7 -4 -6 -2 -14 4 -18 5 -3 10 -1
10 6 0 8 5 7 17 -2 10 -8 14 -9 10 -2 -4 6 -3 14 3 18 5 3 10 1 10 -4 0 -6 7
-11 16 -11 9 0 13 5 9 13 -4 6 2 2 13 -10 20 -23 39 -32 27 -13 -9 15 4 12 21
-4 16 -17 19 -30 4 -21 -5 3 -10 -1 -10 -10 0 -9 4 -14 8 -11 5 3 9 -1 9 -9 0
-8 -4 -15 -9 -15 -4 0 -7 -3 -6 -7 3 -12 -25 -53 -36 -53 -5 0 -2 8 7 18 10
10 14 22 10 27 -5 4 -3 5 4 2 13 -8 12 18 -2 30 -4 4 -5 3 -1 -4 3 -6 2 -14
-4 -18 -6 -4 -8 -10 -5 -15 3 -4 -2 -13 -10 -20 -12 -10 -13 -16 -4 -26 9 -11
8 -14 -1 -14 -28 0 -62 -41 -63 -77 0 -7 -4 -10 -8 -7 -4 2 -14 -2 -22 -10 -9
-9 -18 -11 -23 -6 -6 6 -10 2 -10 -9 0 -11 5 -17 13 -14 7 3 13 1 13 -5 0 -5
-14 -9 -30 -8 -21 2 -29 -2 -26 -11 3 -7 0 -15 -6 -19 -6 -4 -8 -3 -4 4 3 6 1
14 -5 17 -16 11 -7 -48 10 -61 11 -9 12 -12 1 -19 -8 -5 -11 -4 -7 2 8 13 -20
26 -35 16 -6 -3 -8 -1 -4 5 3 6 2 13 -4 17 -6 3 -10 -4 -11 -17 0 -13 -3 -17
-6 -10 -2 6 -12 12 -21 11 -11 0 -12 -2 -4 -6 17 -7 15 -20 -3 -20 -8 0 -15 5
-15 10 0 6 -3 7 -6 4 -4 -4 -1 -14 7 -24 12 -15 12 -16 -4 -10 -10 4 -16 3
-13 -2 3 -5 -1 -12 -10 -15 -12 -5 -15 -2 -10 11 5 15 3 14 -9 -2 -14 -17 -17
-18 -26 -5 -9 13 -10 12 -5 -2 3 -11 -3 -23 -17 -33 -12 -8 -16 -15 -10 -15 7
0 15 5 19 12 5 7 11 5 21 -7 9 -14 13 -15 13 -4 0 11 2 11 9 1 7 -11 9 -10 14
3 4 9 3 13 -3 10 -6 -3 -10 -2 -10 4 0 6 9 15 21 21 15 9 24 8 37 -2 13 -11
14 -11 7 2 -10 16 -16 40 -9 40 2 0 11 -12 19 -27 9 -16 14 -21 11 -12 -3 12
0 15 14 12 11 -3 28 4 41 16 18 17 25 18 38 8 8 -6 5 2 -7 20 l-22 31 24 -11
c13 -7 22 -16 19 -21 -4 -5 -1 -6 5 -2 7 4 10 19 7 34 l-5 27 11 -25 c10 -20
13 -22 16 -8 3 10 10 15 19 11 10 -4 12 0 7 13 -6 17 -5 18 12 4 17 -14 18
-14 5 10 -12 23 -12 24 3 11 13 -10 17 -10 17 -1 0 10 3 10 15 0 12 -10 14 -8
10 9 -3 14 0 19 7 15 8 -5 9 -1 5 10 -4 9 -3 15 2 11 5 -3 11 -2 14 2 2 5 2 1
0 -7 -2 -11 0 -11 11 3 7 9 16 17 19 17 4 0 4 -8 1 -17 -5 -15 -4 -15 4 -3 8
10 7 19 -1 29 -10 12 -9 13 10 3 19 -11 21 -9 18 13 -3 30 -2 30 21 8 16 -16
16 -16 9 6 -6 18 -4 22 6 15 11 -6 11 -4 0 9 -13 16 -12 17 13 7 15 -5 25 -6
22 -1 -4 5 0 12 6 15 7 3 2 3 -12 0 l-25 -7 28 27 c16 15 34 23 40 19 7 -4 5
2 -3 12 -14 17 -14 18 10 5 l25 -13 -19 22 c-19 21 -19 21 -1 15 12 -5 16 -4
12 3 -4 6 1 17 10 24 12 10 14 10 9 2 -4 -7 -2 -13 3 -13 14 0 14 17 1 25 -8
5 -8 11 -1 19 6 7 7 17 3 21 -4 5 -1 5 6 1 11 -6 11 -11 0 -24 -12 -15 -11
-16 4 -3 14 11 15 17 6 35 -14 25 -13 27 15 44 20 11 20 12 2 8 -11 -3 -27 -1
-35 4 -8 5 -10 10 -4 10 17 0 24 24 12 41 -8 11 -9 11 -5 -3 6 -17 -16 -19
-30 -3 -4 4 -2 5 5 1 7 -4 12 -2 12 6 0 8 -9 14 -19 14 -11 0 -17 -5 -14 -11
4 -5 -4 -1 -17 10 -13 11 -20 15 -17 9 4 -7 0 -15 -9 -18 -8 -3 -13 -2 -10 3
3 5 -1 12 -10 15 -8 3 -12 2 -9 -3 3 -5 1 -12 -5 -16 -5 -3 -10 -1 -10 6 0 8
-5 7 -17 -2 -15 -12 -16 -12 -10 4 7 18 5 21 -7 10z m-102 -328 c-4 -8 -11
-15 -16 -15 -6 0 -5 6 2 15 7 8 14 15 16 15 2 0 1 -7 -2 -15z m-164 -204 c0
-6 -4 -12 -8 -15 -5 -3 -9 1 -9 9 0 8 4 15 9 15 4 0 8 -4 8 -9z m-136 -56 c-4
-8 -11 -12 -16 -9 -6 4 -5 10 3 15 19 12 19 11 13 -6z"/>
<path d="M1448 1853 c6 -2 10 -9 7 -13 -3 -5 4 -8 15 -7 20 1 20 2 4 14 -10 7
-23 13 -28 12 -6 0 -5 -3 2 -6z"/>
<path d="M546 1837 c3 -10 9 -15 12 -12 3 3 0 11 -7 18 -10 9 -11 8 -5 -6z"/>
<path d="M2445 1841 c-3 -5 -2 -12 3 -15 5 -3 9 1 9 9 0 17 -3 19 -12 6z"/>
<path d="M1900 1795 c15 -18 -1 -20 -19 -2 -11 10 -11 8 0 -10 9 -15 17 -19
25 -13 6 6 14 7 18 3 9 -9 27 18 20 29 -3 4 -11 8 -17 8 -8 0 -8 -3 2 -9 9 -6
10 -11 2 -15 -6 -4 -14 0 -17 8 -3 9 -11 16 -16 16 -6 0 -5 -6 2 -15z"/>
<path d="M1857 1769 c4 -13 8 -18 11 -10 2 7 -1 18 -6 23 -8 8 -9 4 -5 -13z"/>
<path d="M1956 1782 c-3 -5 1 -9 9 -9 8 0 12 4 9 9 -3 4 -7 8 -9 8 -2 0 -6 -4
-9 -8z"/>
<path d="M910 1776 c0 -3 9 -10 20 -16 11 -6 20 -8 20 -6 0 3 -9 10 -20 16
-11 6 -20 8 -20 6z"/>
<path d="M1043 1764 c4 -7 1 -17 -7 -23 -15 -13 -16 -35 -1 -48 4 -4 5 -2 1 5
-5 8 1 12 21 13 15 1 32 1 36 0 5 -1 6 3 3 8 -4 5 -15 8 -26 6 -11 -2 -23 1
-26 7 -4 6 -3 8 4 4 12 -7 10 20 -3 31 -4 4 -5 3 -2 -3z"/>
<path d="M1073 1755 c0 -8 4 -12 9 -9 5 3 6 10 3 15 -9 13 -12 11 -12 -6z"/>
<path d="M585 1720 c3 -5 8 -10 11 -10 2 0 4 5 4 10 0 6 -5 10 -11 10 -5 0 -7
-4 -4 -10z"/>
<path d="M1080 1695 c0 -5 5 -17 10 -25 5 -8 10 -10 10 -5 0 6 -5 17 -10 25
-5 8 -10 11 -10 5z"/>
<path d="M1475 1680 c-3 -5 -1 -10 4 -10 6 0 11 5 11 10 0 6 -2 10 -4 10 -3 0
-8 -4 -11 -10z"/>
<path d="M2340 1676 c0 -2 7 -7 16 -10 8 -3 12 -2 9 4 -6 10 -25 14 -25 6z"/>
<path d="M1100 1645 c0 -2 6 -8 13 -14 10 -8 14 -7 14 2 0 8 -6 14 -14 14 -7
0 -13 -1 -13 -2z"/>
<path d="M630 1577 c0 -2 6 -10 14 -16 11 -9 16 -9 22 1 4 7 4 10 -1 6 -4 -4
-14 -3 -22 3 -7 6 -13 9 -13 6z"/>
<path d="M1970 1470 c0 -5 5 -10 11 -10 5 0 7 5 4 10 -3 6 -8 10 -11 10 -2 0
-4 -4 -4 -10z"/>
<path d="M783 1373 c16 -16 18 -16 34 0 10 9 12 17 6 17 -6 0 -14 -6 -17 -12
-5 -10 -7 -10 -12 0 -3 6 -11 12 -17 12 -6 0 -4 -8 6 -17z"/>
<path d="M853 1362 c2 -12 6 -24 10 -28 3 -4 4 4 2 16 -6 30 -16 40 -12 12z"/>
<path d="M714 1358 c-3 -5 -3 -12 0 -15 3 -4 6 -1 6 5 0 7 5 12 10 12 6 0 9
-5 8 -12 -2 -8 9 -13 29 -13 18 -1 30 2 27 7 -3 5 -10 6 -15 3 -5 -4 -9 0 -9
8 0 16 -47 20 -56 5z m46 -8 c0 -5 -5 -10 -11 -10 -5 0 -7 5 -4 10 3 6 8 10
11 10 2 0 4 -4 4 -10z"/>
<path d="M820 1355 c-7 -9 -11 -17 -9 -20 3 -2 10 5 17 15 14 24 10 26 -8 5z"/>
<path d="M1890 1360 c0 -5 5 -10 10 -10 6 0 10 5 10 10 0 6 -4 10 -10 10 -5 0
-10 -4 -10 -10z"/>
<path d="M604 1343 l18 -22 -37 10 c-29 8 -40 8 -46 -3 -7 -10 -9 -10 -9 2 0
13 -1 13 -10 0 -9 -14 -15 -7 -10 15 1 6 -4 5 -11 -2 -6 -6 -19 -9 -28 -6 -13
4 -14 3 -1 -5 8 -6 19 -8 25 -4 5 3 4 -2 -4 -11 -12 -16 -16 -16 -31 -2 -14
13 -17 13 -17 0 0 -8 4 -12 9 -9 4 3 5 -3 1 -12 -5 -13 -3 -15 7 -9 9 6 11 4
5 -5 -7 -11 -10 -10 -19 1 -11 14 -50 23 -41 9 3 -4 -4 -10 -15 -13 -11 -3
-20 -1 -20 4 0 5 5 9 10 9 6 0 10 6 10 13 -1 6 -9 2 -19 -10 -14 -17 -21 -19
-31 -10 -10 9 -11 9 -5 -2 6 -11 4 -13 -8 -8 -9 3 -19 2 -22 -3 -3 -5 -12 -7
-20 -4 -9 4 -16 -3 -21 -20 -5 -23 -9 -24 -28 -14 -18 10 -19 9 -8 -4 11 -14
9 -16 -17 -14 -16 1 -28 -2 -25 -6 8 -13 -10 -9 -26 5 -8 6 -6 2 4 -11 11 -12
16 -25 13 -29 -4 -3 -7 -1 -7 5 0 7 -7 12 -15 12 -8 0 -15 -5 -15 -11 0 -5 6
-7 13 -3 8 5 7 2 -2 -10 -8 -9 -21 -14 -28 -11 -9 3 -13 0 -11 -7 5 -15 -15
-38 -33 -38 -9 0 -9 -3 0 -14 10 -12 8 -13 -11 -9 -23 5 -23 5 -3 -11 11 -10
14 -15 8 -11 -7 3 -13 3 -14 -2 0 -4 -2 -16 -4 -26 -2 -9 1 -15 6 -11 5 3 6
11 2 17 -3 7 3 4 14 -6 11 -9 23 -15 26 -12 4 3 3 -1 -3 -7 -13 -16 -13 -38 1
-38 5 0 7 4 4 10 -4 6 1 7 11 3 15 -6 15 -7 -2 -20 -17 -13 -17 -14 10 -7 23
6 27 4 21 -7 -7 -11 -6 -12 6 -3 11 9 17 9 26 -1 6 -7 9 -17 5 -21 -4 -5 0 -3
9 4 9 6 19 9 23 5 4 -4 4 1 0 12 -7 16 -5 16 14 -3 23 -23 48 -30 36 -10 -5 7
-3 8 7 2 8 -4 35 -9 62 -10 26 0 51 -5 55 -9 4 -5 -1 -5 -10 -2 -10 3 -20 2
-22 -2 -3 -5 5 -7 17 -7 12 1 31 -5 41 -13 19 -16 19 -15 3 9 -16 25 -16 26 6
27 24 2 50 31 40 46 -3 5 -8 4 -13 -3 -5 -8 -9 -7 -14 5 -9 24 -7 32 4 15 6
-10 10 -11 10 -2 0 6 4 12 10 12 5 0 9 -3 7 -7 -1 -5 8 -18 21 -30 12 -13 22
-18 22 -12 0 5 5 7 11 3 6 -3 7 -9 3 -13 -13 -9 -16 -39 -4 -46 6 -4 7 1 3 12
-6 16 -5 17 13 3 15 -11 16 -11 7 0 -7 8 -13 19 -13 24 1 6 9 2 18 -10 14 -17
20 -18 29 -8 9 9 9 13 -2 17 -7 3 -12 17 -11 31 2 14 -1 23 -6 20 -5 -3 -7
-12 -4 -20 3 -7 1 -16 -4 -19 -4 -3 -10 0 -12 5 -2 6 -11 12 -21 14 -18 2 -25
21 -8 21 5 0 12 3 15 7 3 5 3 6 -1 3 -3 -3 -12 0 -20 7 -11 9 -13 8 -11 -2 2
-7 -3 -15 -11 -18 -8 -2 -11 0 -8 6 4 5 0 15 -8 22 -12 10 -15 10 -15 0 0 -9
-4 -9 -17 1 -13 11 -15 11 -9 1 12 -21 -26 -10 -43 11 -13 18 -14 18 -34 0
-11 -10 -17 -12 -12 -4 5 9 2 19 -10 28 -12 8 -14 13 -6 13 11 0 11 3 1 15
-11 13 -10 14 3 10 8 -4 18 -1 23 6 4 8 3 10 -4 5 -7 -4 -12 -2 -12 4 0 6 -5
8 -12 4 -7 -5 -8 -3 -4 5 5 7 10 10 14 7 3 -3 11 2 19 12 8 9 12 11 8 5 -3 -7
-1 -13 4 -13 6 0 11 8 11 19 0 22 25 45 40 36 5 -3 10 -2 10 4 0 6 8 7 18 4
14 -6 15 -4 5 8 -9 12 -5 14 25 13 23 -1 42 5 49 15 20 26 15 36 -7 13 -12
-12 -26 -22 -33 -21 -9 0 -8 2 1 6 10 4 10 8 0 21 -11 15 -11 15 4 4 10 -8 19
-9 22 -3 4 5 2 12 -4 16 -5 3 -10 12 -10 18 0 7 4 6 10 -3 12 -19 30 -20 51
-3 13 11 16 11 16 -2 0 -8 -4 -12 -8 -9 -4 2 -10 0 -14 -5 -3 -6 4 -8 17 -4
13 3 31 6 41 6 14 1 17 7 12 27 -6 23 -5 23 7 7 13 -17 54 -15 44 2 -9 14 12
34 29 28 9 -4 13 -11 10 -17 -3 -6 1 -7 9 -4 9 3 16 10 16 16 0 5 -5 6 -10 3
-6 -3 -13 1 -16 9 -5 12 -11 13 -24 6 -23 -12 -52 -8 -77 10 -17 14 -17 14 1
-7z m41 -23 c3 -5 1 -10 -4 -10 -6 0 -11 5 -11 10 0 6 2 10 4 10 3 0 8 -4 11
-10z m-363 -82 c-7 -7 -12 -8 -12 -2 0 14 12 26 19 19 2 -3 -1 -11 -7 -17z
m93 -207 c3 -5 2 -12 -3 -15 -5 -3 -9 1 -9 9 0 17 3 19 12 6z m51 -64 c1 -7
-8 -14 -20 -14 -19 -2 -19 -1 -3 8 9 6 14 16 11 22 -4 7 -3 8 1 4 5 -4 10 -13
11 -20z"/>
<path d="M1815 1331 c-3 -5 -2 -12 3 -15 5 -3 9 1 9 9 0 17 -3 19 -12 6z"/>
<path d="M415 1320 c-3 -5 -1 -10 4 -10 6 0 11 5 11 10 0 6 -2 10 -4 10 -3 0
-8 -4 -11 -10z"/>
<path d="M679 1318 c0 -2 -2 -13 -3 -24 -2 -22 15 -27 31 -9 4 4 2 5 -4 1 -12
-6 -18 5 -14 27 1 6 -8 11 -10 5z"/>
<path d="M2061 1196 c-10 -11 -8 -16 8 -21 19 -6 26 -17 22 -38 -1 -5 3 -6 9
-2 6 3 8 11 5 16 -4 5 -3 14 1 21 5 8 10 6 14 -8 4 -10 2 -25 -4 -33 -8 -11
-8 -13 2 -7 6 4 12 2 12 -3 0 -6 -5 -11 -12 -11 -17 0 -3 -10 21 -15 12 -2 19
0 16 6 -4 5 -1 9 6 9 6 0 9 -8 6 -20 -3 -11 -2 -18 2 -16 9 6 36 -16 44 -36 4
-11 12 -15 21 -12 9 3 27 -4 42 -15 15 -12 21 -21 14 -21 -10 0 -10 -3 0 -15
7 -9 10 -18 7 -22 -4 -3 -2 -12 4 -19 8 -10 5 -16 -10 -26 -12 -7 -21 -18 -21
-25 0 -7 -5 -13 -11 -13 -5 0 -7 5 -4 10 3 6 -1 10 -9 10 -9 0 -15 -5 -13 -12
1 -7 -2 -12 -8 -13 -5 0 -16 -4 -22 -8 -8 -5 -13 -4 -13 2 0 10 14 15 33 12 5
-1 6 3 2 9 -7 11 -19 6 -49 -19 -18 -15 -18 -15 -11 7 l7 24 -21 -21 c-22 -22
-41 -27 -41 -11 0 5 5 9 11 7 6 -1 14 5 16 13 4 13 3 13 -6 0 -6 -8 -11 -12
-11 -8 0 4 -12 1 -27 -7 -15 -8 -30 -12 -35 -9 -4 3 -8 -3 -9 -13 0 -10 -3
-13 -5 -6 -3 7 -1 20 5 30 8 15 6 19 -10 20 -16 2 -19 -3 -14 -18 6 -18 5 -19
-14 -7 -12 7 -21 18 -21 25 0 9 -7 10 -22 4 -13 -4 -29 -6 -37 -3 -9 3 -11 0
-6 -9 5 -8 5 -11 0 -7 -4 4 -13 3 -20 -2 -8 -7 -12 -5 -12 5 0 8 3 13 6 11 3
-2 15 5 26 16 20 19 20 19 -8 9 -35 -14 -40 -14 -32 -1 3 6 -1 7 -9 4 -9 -3
-16 -10 -16 -16 0 -5 4 -7 8 -4 5 3 9 -1 9 -9 0 -13 -3 -13 -16 -1 -9 7 -24
14 -33 15 -48 3 -49 4 -43 29 3 14 2 21 -4 18 -5 -4 -17 2 -27 11 -16 16 -16
16 -9 -7 7 -22 6 -23 -8 -11 -9 7 -14 18 -10 24 4 6 1 7 -6 3 -7 -5 -10 -11
-7 -14 4 -3 -1 -17 -10 -31 l-15 -26 20 23 c18 20 21 21 29 6 8 -15 10 -14 17
2 7 17 8 16 14 -6 4 -14 12 -26 19 -26 7 -1 17 -2 23 -3 5 0 7 -5 4 -11 -3 -5
-1 -10 5 -10 6 0 8 -6 4 -12 -4 -7 -4 -10 1 -6 4 4 14 3 22 -4 11 -9 12 -7 6
8 -6 16 -3 15 24 -4 23 -16 34 -19 39 -11 5 8 3 9 -7 4 -8 -5 -11 -4 -6 1 5 5
12 9 15 9 4 0 12 3 17 6 22 13 46 18 40 10 -3 -5 4 -13 16 -16 17 -6 19 -9 8
-16 -8 -5 -10 -9 -5 -9 5 0 4 -6 -2 -13 -8 -9 -8 -17 0 -27 9 -13 9 -13 5 0
-2 8 2 21 10 29 13 12 14 11 8 -8 -5 -18 -2 -21 20 -21 18 0 24 -4 19 -12 -5
-9 -2 -9 9 1 12 9 17 10 17 2 0 -7 5 -9 10 -6 6 4 18 1 27 -7 15 -11 16 -11
10 6 -6 16 -5 17 8 6 8 -7 15 -9 15 -4 0 4 5 3 12 -4 14 -14 32 -16 24 -3 -4
5 0 8 6 7 14 -2 20 -18 11 -26 -4 -3 -3 1 2 9 5 10 4 12 -4 7 -6 -4 -9 -12 -5
-17 3 -5 10 -7 15 -3 5 3 18 0 27 -7 14 -11 15 -11 5 1 -24 26 -8 37 25 17 6
-5 16 -5 22 -2 6 4 7 -1 3 -12 -6 -16 -5 -16 10 -4 9 7 17 10 17 6 0 -4 6 -2
13 4 8 6 17 8 21 4 4 -4 12 -1 17 7 9 13 10 13 6 0 -2 -8 -11 -14 -20 -14 -9
1 -14 -2 -11 -7 6 -11 50 -7 61 6 4 4 2 5 -4 1 -7 -4 -13 -2 -13 4 0 7 6 10
13 7 6 -2 11 -13 10 -23 -1 -18 -1 -18 13 1 8 11 21 19 28 17 8 -1 17 5 20 14
5 14 4 15 -9 4 -8 -7 -15 -9 -15 -5 0 4 -6 2 -13 -4 -10 -8 -14 -7 -14 3 0 7
7 13 16 13 27 1 61 15 61 26 0 6 3 7 6 4 4 -4 1 -13 -6 -22 -7 -8 -8 -15 -2
-15 5 0 13 7 16 16 3 8 10 13 15 10 5 -4 8 2 6 11 -1 10 2 26 7 37 6 10 6 16
1 13 -5 -3 -15 4 -23 16 -12 20 -12 21 3 9 12 -11 17 -11 23 0 4 7 4 10 -1 6
-4 -4 -14 0 -22 8 -8 8 -19 11 -25 8 -7 -5 -8 -2 -2 7 12 20 14 40 3 33 -5 -3
-6 -10 -3 -16 4 -7 2 -8 -4 -4 -6 4 -8 14 -5 23 4 10 2 14 -4 10 -6 -4 -13 0
-16 8 -4 10 -1 12 11 9 14 -5 15 -4 2 4 -10 8 -19 7 -29 -1 -10 -8 -13 -8 -8
-1 4 7 0 15 -9 18 -9 3 -14 12 -11 20 3 8 -5 18 -21 25 -25 11 -26 10 -8 -4
11 -8 17 -17 15 -19 -3 -3 -17 6 -33 19 -15 13 -36 22 -47 20 -13 -3 -17 0
-12 8 4 7 8 18 9 25 2 11 0 11 -14 0 -13 -11 -14 -11 -7 1 6 11 4 13 -8 8 -20
-8 -22 4 -4 22 10 11 8 11 -10 0 -12 -7 -19 -17 -17 -21 3 -4 0 -8 -5 -8 -14
0 -14 6 0 33 12 22 12 22 -10 3 -18 -16 -21 -17 -21 -3 0 8 6 18 13 21 6 2 3
4 -8 3 -11 -2 -26 -7 -34 -11 -10 -6 -12 -5 -7 2 8 14 4 15 -18 6 -9 -3 -13
-11 -9 -17 3 -5 1 -7 -5 -3 -5 3 -13 0 -15 -6 -4 -10 -6 -10 -6 -1 -1 7 8 20
19 30 18 18 19 19 0 19 -10 0 -16 -4 -14 -8 3 -4 0 -8 -7 -8 -6 0 -9 8 -6 19
4 15 0 19 -15 16 -15 -3 -18 0 -14 13 6 16 5 16 -8 0 -16 -22 -30 -23 -22 -3
7 19 2 19 -13 1z m162 -107 c-9 -9 -6 -17 10 -31 12 -11 17 -17 10 -14 -6 4
-13 3 -16 -1 -2 -5 -2 -2 -1 5 2 6 0 12 -4 12 -5 0 -17 7 -28 16 -16 13 -16
15 -2 10 10 -3 20 -1 23 4 4 6 9 10 13 10 3 0 1 -5 -5 -11z m-378 -209 c3 -5
1 -10 -4 -10 -6 0 -11 5 -11 10 0 6 2 10 4 10 3 0 8 -4 11 -10z m682 -55 c0
-8 -4 -12 -9 -9 -5 3 -6 10 -3 15 9 13 12 11 12 -6z"/>
<path d="M2027 1178 c7 -8 11 -17 8 -19 -2 -3 5 -5 15 -5 25 0 25 0 -7 22 -20
13 -25 13 -16 2z"/>
<path d="M386 1171 c-4 -5 -2 -12 3 -15 5 -4 12 -2 15 3 4 5 2 12 -3 15 -5 4
-12 2 -15 -3z"/>
<path d="M82 1134 c-7 -8 -8 -14 -3 -14 10 0 25 19 20 25 -2 1 -10 -3 -17 -11z"/>
<path d="M2337 1077 c-3 -8 3 -14 16 -15 12 0 17 2 12 6 -6 4 -13 11 -16 15
-4 4 -9 2 -12 -6z"/>
<path d="M70 1020 c0 -5 5 -10 11 -10 5 0 7 5 4 10 -3 6 -8 10 -11 10 -2 0 -4
-4 -4 -10z"/>
<path d="M2254 1003 c2 -10 6 -17 10 -16 15 3 16 11 2 22 -12 10 -14 9 -12 -6z"/>
<path d="M930 965 c-7 -9 -8 -15 -2 -15 5 0 12 7 16 15 3 8 4 15 2 15 -2 0 -9
-7 -16 -15z"/>
<path d="M462 950 c-7 -11 -20 -20 -29 -20 -14 0 -15 -2 -4 -12 11 -10 14 -10
18 0 3 6 9 12 15 12 6 0 7 -7 4 -16 -5 -13 -4 -14 7 -6 8 7 16 11 18 9 2 -1
-3 4 -11 12 -13 11 -12 12 8 6 22 -6 22 -5 10 14 -16 26 -20 26 -36 1z"/>
<path d="M580 961 c0 -9 30 -24 36 -18 2 1 -6 8 -16 15 -11 7 -20 8 -20 3z"/>
<path d="M627 959 c7 -7 15 -10 18 -7 3 3 -2 9 -12 12 -14 6 -15 5 -6 -5z"/>
<path d="M940 941 c-8 -6 -19 -7 -25 -3 -5 3 -4 -1 3 -10 11 -14 10 -19 -9
-32 l-22 -15 26 -7 c16 -3 24 -11 20 -18 -3 -6 -2 -8 2 -3 13 12 16 47 4 47
-5 0 -7 5 -4 10 5 8 11 8 19 1 9 -8 13 -7 13 4 0 8 -4 12 -9 9 -4 -3 -8 -1 -8
5 0 5 6 12 13 14 6 3 8 6 2 6 -5 0 -17 -3 -25 -8z m-5 -51 c3 -5 -1 -10 -10
-10 -9 0 -13 5 -10 10 3 6 8 10 10 10 2 0 7 -4 10 -10z"/>
<path d="M210 919 c0 -5 5 -7 10 -4 6 3 10 8 10 11 0 2 -4 4 -10 4 -5 0 -10
-5 -10 -11z"/>
<path d="M274 922 c4 -3 14 -7 22 -8 9 -1 13 0 10 4 -4 3 -14 7 -22 8 -9 1
-13 0 -10 -4z"/>
<path d="M331 914 c0 -11 3 -14 6 -6 3 7 2 16 -1 19 -3 4 -6 -2 -5 -13z"/>
<path d="M606 918 c3 -5 10 -6 15 -3 13 9 11 12 -6 12 -8 0 -12 -4 -9 -9z"/>
<path d="M1807 919 c7 -7 15 -10 18 -7 3 3 -2 9 -12 12 -14 6 -15 5 -6 -5z"/>
<path d="M2269 913 c-13 -15 -12 -15 9 -4 23 12 28 21 13 21 -5 0 -15 -7 -22
-17z"/>
<path d="M1945 900 c-3 -6 1 -7 9 -4 18 7 21 14 7 14 -6 0 -13 -4 -16 -10z"/>
<path d="M2066 873 c-4 -11 -1 -11 14 -3 24 13 25 17 5 17 -8 0 -16 -6 -19
-14z"/>
<path d="M880 860 c13 -8 13 -10 -1 -10 -18 0 -33 -37 -18 -45 4 -3 5 -13 2
-23 -5 -16 -4 -16 13 1 17 15 17 19 4 28 -13 9 -13 10 0 6 8 -2 15 -11 15 -20
0 -8 3 -18 6 -22 4 -3 6 5 5 17 -1 13 2 29 7 36 12 15 -9 42 -32 42 -14 0 -14
-2 -1 -10z m30 -20 c0 -5 -4 -10 -10 -10 -5 0 -10 5 -10 10 0 6 5 10 10 10 6
0 10 -4 10 -10z"/>
<path d="M1936 852 c-2 -4 2 -15 9 -26 10 -13 18 -15 30 -9 20 12 21 23 3 34
-16 11 -35 11 -42 1z m31 -19 c0 -9 -4 -10 -14 -2 -7 6 -13 12 -13 14 0 1 6 2
13 2 8 0 14 -6 14 -14z"/>
<path d="M832 794 c2 -11 8 -23 13 -27 6 -4 1 -7 -10 -5 -12 2 -19 -2 -17 -10
1 -8 -2 -11 -8 -7 -8 5 -6 13 5 25 12 14 13 20 4 26 -8 5 -10 3 -4 -6 6 -10 4
-12 -8 -7 -9 3 -19 1 -23 -5 -4 -6 -3 -8 3 -5 7 4 10 -3 9 -18 -1 -27 -11 -33
-19 -12 -3 6 -5 1 -5 -13 1 -57 -2 -81 -12 -75 -6 4 -8 10 -5 15 3 5 0 12 -6
16 -8 4 -9 3 -5 -4 4 -7 2 -12 -3 -12 -6 0 -11 -5 -11 -11 0 -5 4 -8 9 -5 10
6 25 -24 16 -32 -3 -3 -5 -1 -5 5 0 5 -7 10 -15 10 -8 0 -12 -4 -9 -9 3 -4 -1
-8 -8 -8 -9 0 -9 -3 2 -10 13 -9 13 -10 0 -10 -13 0 -13 -1 0 -11 12 -9 11
-10 -7 -6 -21 5 -21 4 -7 -19 15 -22 15 -23 -5 -19 -15 3 -19 0 -14 -8 13 -21
10 -45 -4 -40 -11 4 -11 8 -1 22 8 11 5 10 -10 -3 -22 -19 -30 -32 -13 -21 5
3 12 1 16 -5 3 -5 1 -10 -5 -10 -7 0 -7 -7 1 -22 12 -22 11 -22 -6 -8 -17 14
-17 14 -7 -7 14 -26 15 -36 3 -29 -5 4 -7 -4 -3 -16 4 -15 2 -19 -7 -13 -10 5
-11 3 -4 -11 13 -27 8 -75 -8 -85 -11 -7 -12 -11 -1 -17 8 -5 11 -20 8 -36 -4
-25 -3 -26 11 -14 11 8 14 9 10 1 -10 -16 3 -64 14 -57 5 3 6 10 3 16 -4 7 -2
8 5 4 6 -4 9 -11 6 -16 -3 -4 2 -11 11 -14 8 -3 12 -2 9 3 -3 5 0 13 6 17 8 4
9 3 5 -4 -3 -6 2 -16 13 -22 17 -8 19 -8 15 4 -3 8 0 17 7 22 7 4 10 3 6 -3
-4 -6 0 -16 8 -23 13 -11 14 -10 9 3 -3 10 2 20 16 27 14 7 20 8 16 2 -4 -6 2
-10 13 -9 14 1 17 5 10 13 -7 8 -6 14 1 19 5 3 10 1 10 -4 0 -6 4 -11 9 -11 5
0 7 10 4 22 -3 13 -1 19 4 13 4 -5 14 -11 21 -13 10 -2 10 2 2 18 -8 16 -8 20
2 18 7 -2 12 3 10 10 -3 16 3 15 22 -4 9 -8 16 -11 16 -5 0 5 -5 13 -10 16
-12 7 -4 25 11 25 6 0 7 -6 3 -12 -4 -7 -3 -9 1 -5 5 4 10 15 11 25 2 9 7 18
13 20 5 2 8 11 5 20 -3 9 2 6 11 -8 9 -14 14 -18 12 -10 -2 8 5 21 17 28 21
13 20 13 -3 6 -17 -4 -22 -2 -19 7 3 8 14 13 26 11 11 -2 24 2 28 9 4 8 3 9
-4 5 -7 -4 -12 -1 -12 9 0 11 5 15 16 11 8 -3 12 -2 9 4 -3 6 -1 10 4 10 6 0
11 5 11 12 0 9 -3 9 -12 0 -7 -7 -16 -12 -21 -12 -5 0 1 8 14 19 19 15 21 22
11 33 -9 12 -9 15 3 15 7 0 13 -4 12 -8 -2 -7 4 -9 26 -9 7 0 5 5 -5 11 -10 5
-15 17 -12 27 5 14 4 15 -5 2 -10 -14 -16 -7 -12 13 1 5 -3 6 -9 2 -6 -3 -8
-10 -5 -15 3 -4 -6 -15 -20 -24 -14 -9 -24 -24 -22 -34 1 -9 -2 -18 -8 -19 -5
-1 -9 6 -7 15 2 15 1 15 -8 -1 -6 -9 -16 -14 -22 -11 -7 4 -8 2 -4 -4 4 -7 1
-12 -7 -12 -18 0 -51 -36 -43 -48 6 -10 -30 -9 -40 0 -3 4 -16 3 -28 -2 -25
-9 -68 14 -44 23 10 4 10 6 1 6 -7 1 -13 6 -13 12 0 6 8 8 18 5 14 -5 13 -3
-3 9 -17 14 -18 17 -5 25 10 7 11 10 3 10 -7 0 -13 7 -13 16 0 9 5 12 13 8 6
-4 3 3 -7 15 -15 16 -16 20 -5 16 10 -4 16 0 16 9 0 8 -3 13 -7 11 -9 -6 -6
37 3 53 5 6 6 16 3 20 -3 5 1 9 9 9 8 0 12 -4 9 -8 -2 -4 1 -11 8 -15 7 -4 10
-4 6 1 -4 4 0 14 10 22 16 12 16 13 -1 7 -13 -5 -16 -2 -11 10 3 9 9 14 13 11
4 -2 8 2 8 9 0 8 -6 12 -12 10 -7 -3 -11 4 -9 18 1 13 3 24 4 26 7 8 4 28 -5
34 -6 5 -2 8 9 8 13 0 16 -5 12 -17 -6 -17 -5 -17 7 -1 8 10 16 16 18 13 3 -2
5 6 6 18 2 21 1 21 -13 3 -14 -20 -15 -19 -18 23 -1 8 -7 16 -14 19 -9 3 -12
-3 -10 -14z m-22 -80 c0 -8 -19 -13 -24 -6 -3 5 1 9 9 9 8 0 15 -2 15 -3z m20
-74 c0 -5 -4 -10 -10 -10 -5 0 -10 5 -10 10 0 6 5 10 10 10 6 0 10 -4 10 -10z
m217 -186 c-9 -9 -28 6 -21 18 4 6 10 6 17 -1 6 -6 8 -13 4 -17z m-97 -53 c0
-5 -7 -12 -16 -15 -14 -5 -15 -4 -4 9 14 17 20 19 20 6z"/>
<path d="M1339 753 c-8 -9 -9 -14 -3 -10 7 4 12 -2 12 -18 0 -14 -4 -22 -9
-20 -4 3 -6 -4 -4 -15 2 -11 -3 -24 -13 -30 -15 -9 -15 -10 3 -8 15 2 20 -2
19 -20 -1 -18 1 -20 12 -11 8 6 11 16 7 22 -3 6 -1 7 5 3 9 -5 9 -13 1 -27 -6
-12 -8 -23 -5 -27 3 -3 6 1 6 9 1 10 3 10 10 -3 6 -10 19 -15 30 -13 13 3 18
0 14 -7 -5 -7 -2 -8 7 -3 12 8 12 6 0 -8 -14 -18 -23 -22 -18 -9 1 4 -2 9 -7
12 -5 3 -11 -14 -13 -38 -2 -31 0 -41 8 -36 8 4 9 3 5 -4 -4 -6 -13 -9 -21 -5
-8 3 -15 0 -15 -6 0 -6 3 -10 8 -10 19 3 33 -2 27 -10 -3 -5 -1 -12 5 -16 6
-4 8 -10 5 -15 -3 -5 5 -16 17 -24 12 -9 17 -16 11 -16 -12 0 -11 -13 2 -42 4
-10 11 -15 16 -12 5 3 9 -5 9 -16 0 -16 4 -20 16 -16 10 4 14 1 11 -6 -2 -7
-11 -12 -20 -12 -9 1 -14 -2 -11 -8 3 -5 14 -6 24 -3 10 3 22 0 26 -6 4 -8 3
-9 -4 -5 -18 11 -14 -4 6 -22 10 -10 12 -13 5 -8 -8 5 -16 6 -20 2 -3 -3 -1
-6 6 -6 7 0 9 -5 6 -10 -4 -6 -3 -10 2 -9 21 4 33 -2 33 -17 0 -8 4 -13 9 -10
12 8 22 -20 14 -41 -6 -16 -5 -17 12 -3 10 8 16 10 13 5 -4 -6 -3 -17 3 -25 7
-12 9 -11 9 5 1 14 5 10 15 -14 8 -18 12 -38 8 -44 -4 -6 -1 -7 6 -3 7 5 10
14 7 22 -3 8 0 11 10 7 8 -3 13 -12 10 -19 -8 -20 10 -27 35 -14 24 13 41 4
19 -10 -9 -6 -10 -10 -3 -10 7 0 17 8 22 18 6 10 11 12 11 4 0 -8 8 -6 22 8
12 11 27 20 32 20 6 0 4 -5 -4 -10 -8 -5 -10 -10 -4 -10 19 0 24 13 11 28 -10
13 -9 15 5 9 13 -4 15 -2 11 10 -4 11 -2 14 5 9 18 -11 15 0 -5 20 -17 17 -17
17 5 12 12 -3 22 -4 22 -2 0 3 -10 9 -22 14 -22 8 -21 9 7 10 27 1 28 2 8 10
-27 11 -24 38 8 56 l24 14 -28 -4 c-24 -4 -27 -3 -17 9 13 15 4 39 -11 30 -5
-4 -9 -1 -9 4 0 6 4 11 9 11 6 0 10 23 9 52 0 33 -3 46 -9 37 -6 -9 -9 -10 -9
-2 0 6 5 15 10 18 8 5 7 12 -2 23 -7 9 -8 13 -3 10 6 -4 11 2 11 13 0 10 -4
19 -9 19 -5 0 -4 7 3 15 8 9 8 15 2 15 -6 0 -12 6 -15 13 -2 6 -3 4 -2 -5 2
-10 0 -20 -4 -22 -16 -10 -9 44 7 54 15 10 15 11 0 6 -15 -4 -34 18 -29 37 1
5 -3 6 -9 2 -6 -3 -8 -11 -5 -16 4 -5 2 -9 -4 -9 -17 0 -18 25 -2 38 14 11 13
11 -7 2 -19 -9 -20 -14 -11 -31 6 -11 16 -19 22 -16 8 3 12 -8 13 -29 1 -29
-1 -31 -12 -16 -9 13 -9 19 -1 24 8 5 6 8 -6 8 -14 0 -17 -5 -12 -21 5 -16 4
-19 -5 -14 -9 5 -11 4 -6 -4 4 -6 13 -8 19 -4 7 4 7 0 -1 -10 -8 -9 -15 -28
-16 -42 -3 -21 -1 -23 12 -13 13 11 14 10 3 -9 -6 -13 -9 -23 -5 -23 4 0 -1
-10 -12 -21 l-19 -22 25 13 c25 13 25 13 7 -8 -11 -11 -16 -26 -12 -31 3 -6
-1 -14 -9 -17 -9 -3 -14 -10 -11 -14 2 -4 -16 -6 -40 -4 -33 2 -43 -1 -38 -9
4 -7 -1 -6 -10 2 -10 8 -15 16 -13 18 10 11 -19 31 -31 21 -8 -6 -10 -3 -6 11
4 15 1 21 -12 21 -12 0 -15 5 -11 16 7 18 -10 44 -28 44 -6 0 -2 -7 8 -15 11
-8 16 -18 12 -22 -4 -4 -12 0 -17 9 -5 9 -17 25 -26 34 -16 16 -16 16 7 10 21
-6 22 -5 7 4 -9 6 -15 15 -12 20 3 4 -2 11 -11 14 -8 3 -12 11 -8 17 4 7 3 9
-4 5 -6 -3 -13 -2 -17 4 -4 6 -12 7 -18 4 -7 -4 -9 -4 -5 1 4 4 2 15 -4 24
-10 13 -10 14 2 4 20 -18 35 -16 20 2 -7 8 -9 15 -5 15 4 0 2 6 -4 13 -6 8 -8
17 -5 20 4 4 -2 5 -13 3 -14 -3 -25 4 -34 22 -8 15 -21 33 -29 40 -13 11 -11
12 10 7 21 -5 22 -4 8 5 -20 12 -24 31 -6 28 6 -2 13 6 15 17 2 15 1 16 -5 5
-8 -16 -32 -25 -32 -12 0 4 5 13 12 20 9 9 7 13 -6 18 -14 5 -15 9 -4 15 8 5
9 9 2 9 -6 0 -18 -8 -25 -17z m17 -77 c0 -14 -3 -23 -7 -20 -6 3 -6 22 0 42 3
10 7 -2 7 -22z m42 -81 c-3 -3 -9 2 -12 12 -6 14 -5 15 5 6 7 -7 10 -15 7 -18z
m81 -109 c9 -11 9 -16 0 -22 -7 -4 -9 -3 -5 4 3 6 -2 15 -11 21 -10 6 -13 11
-7 11 6 0 17 -6 23 -14z m272 -19 c-10 -9 -11 -8 -5 6 3 10 9 15 12 12 3 -3 0
-11 -7 -18z m-321 -17 c0 -5 -2 -10 -4 -10 -3 0 -8 5 -11 10 -3 6 -1 10 4 10
6 0 11 -4 11 -10z m17 -20 c-1 -20 -8 -25 -20 -14 -3 3 0 12 6 20 16 17 16 17
14 -6z"/>
<path d="M2256 745 c4 -8 11 -15 16 -15 6 0 5 6 -2 15 -7 8 -14 15 -16 15 -2
0 -1 -7 2 -15z"/>
<path d="M2166 742 c-3 -5 1 -9 9 -9 8 0 12 4 9 9 -3 4 -7 8 -9 8 -2 0 -6 -4
-9 -8z"/>
<path d="M2314 724 c-18 -14 -18 -15 4 -4 12 6 22 13 22 15 0 8 -5 6 -26 -11z"/>
<path d="M1713 716 c1 -6 -5 -9 -13 -8 -8 2 -12 0 -7 -4 12 -12 45 -15 52 -4
4 6 -1 7 -12 3 -15 -6 -16 -4 -6 8 10 13 10 16 -2 16 -7 0 -13 -5 -12 -11z"/>
<path d="M845 701 c-3 -5 0 -13 6 -17 7 -4 9 -3 5 4 -3 5 0 13 6 15 9 4 10 6
1 6 -6 1 -14 -3 -18 -8z"/>
<path d="M1736 662 c-3 -5 1 -9 9 -9 8 0 12 4 9 9 -3 4 -7 8 -9 8 -2 0 -6 -4
-9 -8z"/>
<path d="M1748 633 c7 -3 16 -2 19 1 4 3 -2 6 -13 5 -11 0 -14 -3 -6 -6z"/>
<path d="M1415 620 c3 -5 8 -10 11 -10 2 0 4 5 4 10 0 6 -5 10 -11 10 -5 0 -7
-4 -4 -10z"/>
<path d="M1713 615 c0 -8 4 -12 9 -9 4 3 8 9 8 15 0 5 -4 9 -8 9 -5 0 -9 -7
-9 -15z"/>
<path d="M1790 596 c0 -8 4 -17 9 -20 5 -4 7 3 4 14 -6 23 -13 26 -13 6z"/>
<path d="M1336 583 c-6 -14 -5 -15 5 -6 7 7 10 15 7 18 -3 3 -9 -2 -12 -12z"/>
<path d="M805 580 c-3 -5 -1 -10 4 -10 6 0 11 5 11 10 0 6 -2 10 -4 10 -3 0
-8 -4 -11 -10z"/>
<path d="M1367 567 c-3 -8 0 -14 7 -14 7 0 13 6 13 14 0 7 -4 13 -8 13 -4 0
-9 -6 -12 -13z"/>
<path d="M1116 547 c3 -10 9 -15 12 -12 3 3 0 11 -7 18 -10 9 -11 8 -5 -6z"/>
<path d="M1084 539 c-4 -8 -3 -9 4 -5 11 6 17 -13 13 -37 -1 -5 3 -6 8 -3 10
7 3 43 -10 51 -4 3 -11 0 -15 -6z"/>
<path d="M1075 440 c3 -5 8 -10 11 -10 2 0 4 5 4 10 0 6 -5 10 -11 10 -5 0 -7
-4 -4 -10z"/>
<path d="M1570 386 c0 -2 7 -7 16 -10 8 -3 12 -2 9 4 -6 10 -25 14 -25 6z"/>
<path d="M1610 346 c0 -2 7 -7 16 -10 8 -3 12 -2 9 4 -6 10 -25 14 -25 6z"/>
<path d="M1710 340 c0 -5 5 -10 11 -10 5 0 7 5 4 10 -3 6 -8 10 -11 10 -2 0
-4 -4 -4 -10z"/>
<path d="M624 323 c0 -10 -5 -17 -12 -15 -8 1 -11 -2 -7 -8 5 -8 12 -7 23 2
10 7 18 13 20 14 1 1 -4 6 -12 13 -11 9 -14 8 -12 -6z"/>
<path d="M1665 319 c-3 -4 2 -6 10 -5 21 3 28 13 10 13 -9 0 -18 -4 -20 -8z"/>
<path d="M1835 300 c3 -5 8 -10 11 -10 2 0 4 5 4 10 0 6 -5 10 -11 10 -5 0 -7
-4 -4 -10z"/>
<path d="M621 244 c0 -11 3 -14 6 -6 3 7 2 16 -1 19 -3 4 -6 -2 -5 -13z"/>
<path d="M1776 62 c-3 -4 4 -9 15 -9 23 -2 25 3 4 10 -8 4 -16 3 -19 -1z"/>
</g>
</svg>
